<svg width="80" height="39" viewBox="0 0 80 39" fill="none" xmlns="http://www.w3.org/2000/svg">
<path d="M0 -1.33514e-05V38.9488L19.7929 19.0099H10.7034L6.56447 23.1255V-1.33514e-05H0Z" fill="#131612"/>
<path d="M6.90393 34.267L11.6004 39L20.7705 39L11.6004 29.7487L6.90393 34.267Z" fill="#131612"/>
<path d="M37.7954 -1.33514e-05V38.9488L57.5883 19.0099H48.4988L44.3599 23.1255V-1.33514e-05H37.7954Z" fill="#131612"/>
<path d="M44.6993 34.267L49.3958 39L58.5659 39L49.3958 29.7487L44.6993 34.267Z" fill="#131612"/>
<path d="M25.4622 19.0099V38.9998H32.0266V19.0099H25.4622Z" fill="#131612"/>
<ellipse cx="28.7444" cy="14.0125" rx="3.28224" ry="3.23365" fill="#131612"/>
<path fill-rule="evenodd" clip-rule="evenodd" d="M74.7604 36.9682C73.0572 38.2431 70.9326 38.9998 68.6286 38.9998C63.0256 38.9998 58.4835 34.5249 58.4835 29.0049C58.4835 23.4848 63.0256 19.0099 68.6286 19.0099C72.0917 19.0099 75.1495 20.7194 76.9801 23.3286L74.7604 26.0185L74.7604 36.9682ZM74.7604 36.9682L74.7604 38.979H80.0002V19.6688L76.9801 23.3286C78.1112 24.9409 78.7737 26.8966 78.7737 29.0049C78.7737 32.255 77.1991 35.1428 74.7604 36.9682ZM68.3925 31.0304C68.3925 32.8163 66.923 34.2641 65.1102 34.2641C63.2975 34.2641 61.828 32.8163 61.828 31.0304C61.828 29.2445 63.2975 27.7968 65.1102 27.7968C66.923 27.7968 68.3925 29.2445 68.3925 31.0304Z" fill="#131612"/>
</svg>
